<?xml version="1.0" encoding="UTF-8"?>
<svg id="Layer_1" xmlns="http://www.w3.org/2000/svg" version="1.1" viewBox="0 0 184.91 43.49">
  <!-- Generator: Adobe Illustrator 30.2.1, SVG Export Plug-In . SVG Version: 2.1.1 Build 1)  -->
  <defs>
    <style>
      .st0 {
        fill: #fbb90d;
        fill-rule: evenodd;
      }
    </style>
  </defs>
  <path class="st0" d="M156.71,26.21h-10.92V8.28h2.63v15.48h8.29v2.45h0ZM170.11,20.06v-11.78h-2.59v11.65c0,.79-.15,1.47-.44,2.05-.29.58-.71,1.02-1.24,1.33-.54.31-1.16.47-1.87.47s-1.33-.16-1.86-.47-.94-.76-1.23-1.34-.43-1.26-.43-2.04v-11.65h-2.59v11.78c0,1.2.26,2.27.8,3.21.53.93,1.26,1.66,2.19,2.17.93.51,1.97.77,3.13.77s2.21-.26,3.14-.77,1.66-1.24,2.2-2.17c.53-.93.8-2,.8-3.21h-.01ZM181.54,21.02c0,.54-.11,1.02-.33,1.43s-.54.73-.97.96c-.42.23-.93.35-1.52.35h-4.11v-5.46h4.11c.58,0,1.09.12,1.52.34.43.23.75.54.97.95.22.4.33.88.33,1.43M181.28,13.29c0,.81-.25,1.44-.76,1.89-.51.45-1.19.67-2.05.67h-3.86v-5.13h3.86c.57,0,1.06.1,1.48.3s.75.49.98.88.35.85.35,1.38h0ZM184.16,21.14c0-1.05-.25-1.93-.74-2.64-.5-.71-1.11-1.22-1.85-1.51.41-.16.79-.42,1.15-.78.35-.36.64-.8.86-1.32.21-.52.32-1.09.32-1.7,0-.99-.21-1.86-.63-2.6s-1.03-1.31-1.82-1.71c-.79-.4-1.71-.6-2.75-.6h-6.71v17.93h6.97c1.02,0,1.92-.19,2.71-.58.79-.39,1.41-.96,1.84-1.72s.65-1.68.65-2.76M140.8,23.5c-.44.24-.98.35-1.62.35-.5,0-.97-.09-1.41-.29-.44-.19-.81-.45-1.12-.78-.41-.48-.68-1.08-.81-1.8s-.19-1.97-.19-3.74c0-.95,0-1.71.04-2.28s.08-1.07.16-1.48c.08-.42.18-.75.29-1,.12-.25.29-.51.52-.77.3-.34.68-.6,1.12-.79s.91-.28,1.41-.28c.65,0,1.19.12,1.62.35.34.18.69.45,1.06.8l2.07-1.47c-.68-.71-1.39-1.24-2.12-1.59-.74-.35-1.62-.52-2.64-.52-.88,0-1.7.16-2.46.48-.76.32-1.43.79-2.03,1.41-.41.44-.73.89-.95,1.35s-.38.95-.48,1.48c-.1.53-.16,1.11-.19,1.74s-.04,1.49-.04,2.57c0,1.41.03,2.49.08,3.24s.2,1.45.43,2.09.62,1.25,1.15,1.82c.38.39.8.73,1.29,1.02.49.29.99.51,1.52.65s1.09.21,1.68.21c.7,0,1.33-.08,1.88-.24s1.07-.41,1.54-.73c.48-.32.92-.7,1.33-1.13l-2.06-1.48c-.38.36-.74.63-1.08.81h.01ZM88.81,26.19V8.25h-4.16l-3.87,7.91-3.86-7.91h-4.16v17.93h4.23v-8.59l2.44,4.43h2.7l2.44-4.43v8.59h4.24ZM102.42,26.21v-3.92h-7.47v-3.16h6.39v-3.92h-6.39v-3h7.47v-3.92h-11.7v17.93h11.7ZM112.76,14.05c0,.32-.07.61-.22.89-.15.27-.36.49-.64.66s-.6.25-.98.25h-2.4v-3.62h2.4c.37,0,.7.08.98.25.28.17.49.39.64.67s.22.58.22.9ZM117.9,26.21l-3.71-7.48c.78-.4,1.44-1,1.98-1.8s.82-1.76.82-2.88c0-1.02-.23-1.96-.69-2.84s-1.13-1.59-2.01-2.12c-.88-.54-1.94-.81-3.17-.81h-6.82v17.93h4.23v-6.68h1.43l3.05,6.68h4.89,0ZM48.91,15.9v3.62h2.33v.21c0,.36-.05.72-.15,1.08-.1.36-.26.64-.46.85-.22.23-.46.41-.72.53-.26.12-.59.18-1,.18-.72,0-1.27-.25-1.64-.75-.14-.18-.25-.42-.34-.69s-.16-.69-.2-1.26c-.05-.57-.07-1.37-.07-2.41s.02-1.84.07-2.4c.05-.56.11-.98.2-1.25s.2-.5.34-.68c.38-.52.93-.78,1.64-.78.5,0,.92.09,1.26.28.19.11.4.27.63.47l3.35-2.43c-.76-.81-1.52-1.37-2.28-1.69s-1.75-.48-2.95-.48c-1.01,0-1.88.16-2.62.48-.74.32-1.44.82-2.08,1.49-.74.78-1.22,1.65-1.41,2.64-.2.99-.3,2.24-.3,3.76v1.19c0,1.52.1,2.77.3,3.75s.67,1.86,1.41,2.64c1.25,1.32,2.82,1.98,4.7,1.98s3.53-.68,4.8-2.03c.62-.64,1.05-1.42,1.29-2.33s.37-2.1.37-3.56v-2.38h-6.47v-.03ZM131.21,18.47c-.2-.63-.52-1.17-.96-1.62-.73-.75-1.85-1.24-3.33-1.46l-2.04-.29c-.51-.07-.9-.25-1.16-.52-.22-.23-.34-.51-.34-.82,0-.43.18-.81.52-1.14.35-.33.86-.5,1.52-.5.7,0,1.31.06,1.81.18.31.07.61.21.89.41h0l3.13-2.27c-.7-.73-1.51-1.27-2.44-1.6-.93-.33-2.02-.5-3.27-.5s-2.35.24-3.28.71c-.93.48-1.65,1.14-2.15,1.98s-.75,1.8-.75,2.87c0,1.53.39,2.71,1.16,3.54.77.82,1.9,1.34,3.4,1.56l2.04.3c.52.07.89.23,1.11.47s.34.59.34,1.04c0,1.06-.81,1.59-2.43,1.59-.74,0-1.44-.1-2.13-.3-.42-.12-.79-.29-1.11-.5l-3.21,2.34c.81.85,1.73,1.46,2.76,1.8,1.04.35,2.26.52,3.66.52,1.2,0,2.3-.21,3.29-.65,1-.43,1.79-1.07,2.37-1.91s.88-1.83.88-2.99c0-.87-.1-1.62-.3-2.26h0l.02.02ZM64.84,19.86h-3l1.55-4.78,1.45,4.78h0ZM71.24,26.21l-6.26-17.93h-3.27l-6.26,17.93h4.43l.84-2.67h5.3l.8,2.67h4.42ZM36.94,7.5c.13.18.09.43-.1.56l-1.31.93s-.12.06-.18.07h-.05c-.13,0-.25-.06-.33-.17-.1-.14-.1-.33,0-.47.03-.03.05-.07.09-.09l1.31-.93c.18-.13.43-.09.56.1h0ZM33.66,9.29s-.02,0-.03.01l-4.56,3.24c-.18.13-.22.38-.1.56.08.11.2.17.33.17.08,0,.16-.02.23-.07l4.52-3.21.03-.02c.18-.13.22-.38.1-.56-.12-.17-.36-.22-.54-.11h.02ZM8.82,25.01l1.21-.85,3.03-2.13,1-.7c.14-.1.19-.26.16-.41-.01-.05-.03-.1-.06-.15-.01-.02-.02-.03-.03-.04h0c-1.9-3.74-.6-7.8,2.1-9.92,1.49-1.17,3.19-1.78,5.09-1.74,2.24.05,4.09.89,5.59,2.43h0s.05.07.09.1h.01c.07.05.15.08.23.08s.16-.02.23-.07l4.06-2.84,1.19-.83,1.29-.9,3.42-2.4c.08-.05.13-.13.15-.22,0-.03,0-.05.02-.08v-.1c0-.06-.03-.12-.07-.17-.13-.18-.38-.23-.56-.1l-3.47,2.43c-2.98-3.46-7.4-5.64-12.32-5.64-2.05,0-4,.38-5.81,1.07v1.69c1.78-.77,3.74-1.19,5.81-1.19,4.39,0,8.33,1.93,11.03,4.98l-1.21.85c-3.11-3.34-6.97-4.87-11.64-4.2-2.46.36-4.56,1.2-6.27,2.51-2.03,1.55-3.53,3.73-4.46,6.51-1.23,3.66-.79,7.16,1.02,10.47l-1.23.86c-1.23-2.15-1.93-4.64-1.93-7.29,0-5.12,2.62-9.63,6.6-12.26v-2.19h-5.43L.85,7.72h3.26l.03,19.58-3.21,2.25c-.18.13-.23.38-.1.56.08.11.2.17.33.17.08,0,.16-.02.23-.07l.22-.15.06-.04.06-.04,2.42-1.7,3.4-2.38,1.29-.9h-.02ZM37.98,10.1l-1.61,1.14c.69,1.8,1.06,3.75,1.06,5.79,0,7.72-5.37,14.18-12.59,15.85v-.31c-1.23.31-2.52.47-3.84.47-1.02,0-2.03-.1-3.02-.28-.96-.18-1.89-.45-2.8-.81H6.79c-.12,0-.25-.06-.33-.16-.05-.07-.08-.16-.08-.24,0-.03,0-.06.01-.09,0-.04.02-.08.05-.12s.06-.08.1-.11l.26-.19,3.1-2.25,1.29-.94,1.25-.91.62-.45,3.63-2.64c.06-.05.14-.07.21-.08.06,0,.12,0,.18.03.02,0,.05.02.07.03s.04.03.06.04c.02.02.04.04.05.06,0,.01.02.03.03.04,3.83,2.16,8.69.81,10.85-3.05.09-.16.16-.33.28-.57h-6.24l11.35-8.06,1.22-.87,1.31-.93h0l1.46-1.03c.18-.13.43-.09.56.1.13.18.09.43-.1.56v-.02ZM35.87,17.03c0-1.7-.29-3.33-.82-4.85l-1.23.88c.52,1.6.7,3.24.57,4.92-.3,3.75-1.89,6.86-4.79,9.26-5.23,4.31-12.28,3.64-16.52.22h0l-1.25.91c.4.33.82.64,1.25.92.56.37,1.14.7,1.75.99h-5.62l-1.01.74-.03.03-.12.09h7.31s.08.03.12.05c.82.32,1.67.57,2.53.75.99.2,2,.3,3.02.3,1.33,0,2.62-.17,3.84-.49v-.48c6.34-1.63,11.02-7.39,11.02-14.23h-.02ZM13.54,23.38l-.47.34-3.43,2.43-.66.47c-.18.13-.22.38-.1.56.08.11.2.17.33.17.08,0,.16-.02.23-.08l.71-.51,2.91-2.06.94-.67c.18-.13.22-.38.1-.56-.13-.18-.38-.22-.56-.1h0ZM6.79,31.94h0ZM6.7,29.17l1.31-.93c.18-.13.22-.38.1-.56-.13-.18-.38-.22-.56-.1l-1.31.93c-.18.13-.22.38-.1.56.08.11.2.17.33.17.08,0,.16-.02.23-.07ZM46.7,39.73v-2.66h-3.29v2.66h-.89v-5.95h.89v2.5h3.29v-2.5h.89v5.95h-.89ZM51.55,39.73v-.47c-.34.38-.83.58-1.41.58-.71,0-1.5-.48-1.5-1.43s.78-1.41,1.5-1.41c.58,0,1.08.19,1.41.57v-.71c0-.54-.44-.86-1.05-.86-.49,0-.91.19-1.29.57l-.35-.55c.48-.47,1.07-.71,1.77-.71.94,0,1.73.41,1.73,1.51v2.91h-.8ZM51.55,38.05c-.24-.32-.66-.49-1.11-.49-.58,0-.99.35-.99.86s.41.86.99.86c.45,0,.87-.17,1.11-.49v-.73ZM50.9,34.77h-.59l1.29-1.29h.79l-1.49,1.29ZM56.95,39.73v-4.79l-.96,1.01-.53-.54,1.6-1.63h.79v5.95h-.89ZM61.25,33.69c1.65,0,2.33,1.6,2.33,3.07s-.68,3.08-2.33,3.08-2.33-1.61-2.33-3.08.68-3.07,2.33-3.07ZM61.25,34.48c-1.05,0-1.42,1.12-1.42,2.28s.37,2.29,1.42,2.29,1.42-1.12,1.42-2.29-.37-2.28-1.42-2.28ZM69.6,39.73v-.47c-.34.38-.83.58-1.41.58-.71,0-1.5-.48-1.5-1.43s.78-1.41,1.5-1.41c.58,0,1.08.19,1.41.57v-.71c0-.54-.44-.86-1.05-.86-.49,0-.91.19-1.29.57l-.35-.55c.48-.47,1.07-.71,1.77-.71.94,0,1.73.41,1.73,1.51v2.91h-.8ZM69.6,38.05c-.24-.32-.66-.49-1.11-.49-.58,0-.99.35-.99.86s.41.86.99.86c.45,0,.87-.17,1.11-.49v-.73ZM74.6,39.73v-2.76c0-.71-.37-.95-.92-.95-.5,0-.96.3-1.19.62v3.08h-.8v-4.31h.8v.61c.29-.35.86-.71,1.53-.71.91,0,1.38.48,1.38,1.39v3.03h-.8ZM76.41,37.57c0-1.24.84-2.26,2.18-2.26s2.18,1.02,2.18,2.26-.83,2.27-2.18,2.27-2.18-1.02-2.18-2.27ZM79.92,37.57c0-.81-.47-1.54-1.34-1.54s-1.34.73-1.34,1.54.48,1.55,1.34,1.55,1.34-.73,1.34-1.55ZM81.79,38.58c.29.32.87.62,1.45.62s.93-.25.93-.62c0-.43-.49-.57-1.04-.7-.73-.17-1.59-.37-1.59-1.29,0-.69.59-1.28,1.64-1.28.74,0,1.28.27,1.64.62l-.36.56c-.25-.3-.73-.53-1.28-.53s-.88.21-.88.56c0,.37.46.5,1,.62.75.17,1.64.38,1.64,1.37,0,.74-.61,1.32-1.74,1.32-.72,0-1.36-.22-1.79-.67l.38-.59ZM89.07,35.42v4.65c0,.88-.47,1.41-1.35,1.41-.2,0-.35-.02-.49-.05l.1-.67c.08.03.2.04.29.04.37,0,.64-.21.64-.72v-4.65h.8ZM88.14,34.19c0-.29.24-.52.52-.52s.52.23.52.52-.23.51-.52.51-.52-.22-.52-.51ZM90.07,37.57c0-1.24.84-2.26,2.18-2.26s2.18,1.02,2.18,2.26-.83,2.27-2.18,2.27-2.18-1.02-2.18-2.27ZM93.59,37.57c0-.81-.47-1.54-1.34-1.54s-1.34.73-1.34,1.54.48,1.55,1.34,1.55,1.34-.73,1.34-1.55ZM95.8,40.25c.36.41.79.57,1.38.57.67,0,1.34-.32,1.34-1.23v-.56c-.33.43-.84.74-1.42.74-1.12,0-1.92-.82-1.92-2.23s.8-2.22,1.92-2.22c.56,0,1.07.27,1.42.73v-.62h.8v4.14c0,1.48-1.08,1.92-2.14,1.92-.72,0-1.25-.15-1.77-.64l.38-.59ZM98.52,36.66c-.22-.35-.71-.63-1.2-.63-.8,0-1.3.62-1.3,1.51s.5,1.52,1.3,1.52c.48,0,.97-.29,1.2-.64v-1.75ZM103.26,39.73v-.47c-.34.38-.83.58-1.41.58-.71,0-1.5-.48-1.5-1.43s.78-1.41,1.5-1.41c.58,0,1.08.19,1.41.57v-.71c0-.54-.44-.86-1.05-.86-.49,0-.91.19-1.29.57l-.35-.55c.48-.47,1.07-.71,1.77-.71.94,0,1.73.41,1.73,1.51v2.91h-.8ZM103.26,38.05c-.24-.32-.66-.49-1.11-.49-.58,0-.99.35-.99.86s.41.86.99.86c.45,0,.87-.17,1.11-.49v-.73ZM108.26,39.73v-2.76c0-.71-.37-.95-.92-.95-.5,0-.96.3-1.19.62v3.08h-.8v-4.31h.8v.61c.29-.35.86-.71,1.53-.71.91,0,1.38.48,1.38,1.39v3.03h-.8ZM113.41,39.73v-.62c-.32.43-.84.72-1.41.72-1.12,0-1.93-.85-1.93-2.26s.8-2.27,1.93-2.27c.55,0,1.06.27,1.41.73v-2.27h.8v5.95h-.8ZM113.41,36.66c-.22-.35-.71-.63-1.2-.63-.8,0-1.3.65-1.3,1.55s.5,1.54,1.3,1.54c.49,0,.97-.28,1.2-.62v-1.84ZM115.23,37.57c0-1.24.84-2.26,2.18-2.26s2.18,1.02,2.18,2.26-.83,2.27-2.18,2.27-2.18-1.02-2.18-2.27ZM118.75,37.57c0-.81-.47-1.54-1.34-1.54s-1.34.73-1.34,1.54.48,1.55,1.34,1.55,1.34-.73,1.34-1.55ZM123.71,35.42v4.65c0,.88-.47,1.41-1.35,1.41-.2,0-.35-.02-.49-.05l.1-.67c.08.03.2.04.29.04.37,0,.64-.21.64-.72v-4.65h.8ZM122.78,34.19c0-.29.24-.52.52-.52s.52.23.52.52-.23.51-.52.51-.52-.22-.52-.51ZM127.9,39.73v-.59c-.33.36-.87.7-1.53.7-.92,0-1.38-.46-1.38-1.38v-3.04h.8v2.78c0,.71.36.93.91.93.5,0,.96-.29,1.2-.61v-3.1h.8v4.31h-.8ZM132.89,39.73v-2.76c0-.71-.37-.95-.92-.95-.5,0-.96.3-1.19.62v3.08h-.8v-4.31h.8v.61c.29-.35.86-.71,1.53-.71.91,0,1.38.48,1.38,1.39v3.03h-.8ZM135.13,38.77v-2.65h-.71v-.71h.71v-1.18h.8v1.18h.88v.71h-.88v2.47c0,.3.14.53.42.53.19,0,.36-.08.44-.17l.21.61c-.17.16-.42.28-.84.28-.68,0-1.03-.38-1.03-1.06ZM137.43,37.57c0-1.24.84-2.26,2.18-2.26s2.18,1.02,2.18,2.26-.83,2.27-2.18,2.27-2.18-1.02-2.18-2.27ZM140.95,37.57c0-.81-.47-1.54-1.34-1.54s-1.34.73-1.34,1.54.48,1.55,1.34,1.55,1.34-.73,1.34-1.55ZM147.04,35.31c.81,0,1.3.34,1.62.76l-.54.49c-.26-.37-.61-.54-1.04-.54-.85,0-1.39.65-1.39,1.54s.54,1.55,1.39,1.55c.44,0,.79-.18,1.04-.54l.54.49c-.31.42-.8.76-1.62.76-1.3,0-2.2-.97-2.2-2.27s.89-2.26,2.2-2.26ZM149.27,37.57c0-1.24.84-2.26,2.18-2.26s2.18,1.02,2.18,2.26-.83,2.27-2.18,2.27-2.18-1.02-2.18-2.27ZM152.79,37.57c0-.81-.47-1.54-1.34-1.54s-1.34.73-1.34,1.54.48,1.55,1.34,1.55,1.34-.73,1.34-1.55ZM159.89,39.73v-2.87c0-.5-.22-.83-.75-.83-.44,0-.87.3-1.07.62v3.09h-.8v-2.87c0-.5-.21-.83-.76-.83-.42,0-.84.31-1.05.62v3.08h-.8v-4.31h.8v.61c.18-.27.75-.71,1.39-.71s1.04.34,1.17.8c.25-.4.82-.8,1.46-.8.79,0,1.22.44,1.22,1.3v3.12h-.8ZM165.41,39.73l-1.78-4.31h.86l1.35,3.38,1.35-3.38h.87l-1.78,4.31h-.87ZM168.44,37.57c0-1.24.84-2.26,2.18-2.26s2.18,1.02,2.18,2.26-.83,2.27-2.18,2.27-2.18-1.02-2.18-2.27ZM171.96,37.57c0-.81-.47-1.54-1.34-1.54s-1.34.73-1.34,1.54.48,1.55,1.34,1.55,1.34-.73,1.34-1.55ZM175.74,35.31c.81,0,1.3.34,1.62.76l-.54.49c-.26-.37-.61-.54-1.04-.54-.85,0-1.39.65-1.39,1.54s.54,1.55,1.39,1.55c.44,0,.79-.18,1.04-.54l.54.49c-.31.42-.8.76-1.62.76-1.3,0-2.2-.97-2.2-2.27s.89-2.26,2.2-2.26ZM180.13,35.31c1.29,0,2.1,1.01,2.1,2.33v.2h-3.41c.06.73.6,1.34,1.46,1.34.46,0,.96-.18,1.28-.51l.38.53c-.43.42-1.04.64-1.73.64-1.29,0-2.23-.91-2.23-2.27,0-1.25.9-2.26,2.16-2.26ZM178.81,37.26h2.63c-.02-.57-.4-1.29-1.31-1.29s-1.28.7-1.32,1.29ZM180.85,34.77l-.71-.9-.7.9h-.52l.84-1.29h.75l.87,1.29h-.53ZM183.6,38.71c.3,0,.56.25.56.55s-.26.56-.56.56-.55-.26-.55-.56.25-.55.55-.55Z"/>
</svg>